<svg viewBox="0 0 330 200" xmlns="http://www.w3.org/2000/svg"><g><g><g><g><g><line x1="50" y1="177" x2="45" y2="177" style="visibility: inherit;" fill="rgb(0, 0, 0)" stroke="rgb(204, 204, 204)" stroke-width="1px"></line><line x1="50" y1="151.7142857142857" x2="45" y2="151.7142857142857" style="visibility: inherit;" fill="rgb(0, 0, 0)" stroke="rgb(204, 204, 204)" stroke-width="1px"></line><line x1="50" y1="126.42857142857139" x2="45" y2="126.42857142857139" style="visibility: inherit;" fill="rgb(0, 0, 0)" stroke="rgb(204, 204, 204)" stroke-width="1px"></line><line x1="50" y1="101.14285714285714" x2="45" y2="101.14285714285714" style="visibility: inherit;" fill="rgb(0, 0, 0)" stroke="rgb(204, 204, 204)" stroke-width="1px"></line><line x1="50" y1="75.85714285714285" x2="45" y2="75.85714285714285" style="visibility: inherit;" fill="rgb(0, 0, 0)" stroke="rgb(204, 204, 204)" stroke-width="1px"></line><line x1="50" y1="50.571428571428605" x2="45" y2="50.571428571428605" style="visibility: inherit;" fill="rgb(0, 0, 0)" stroke="rgb(204, 204, 204)" stroke-width="1px"></line><line x1="50" y1="25.285714285714295" x2="45" y2="25.285714285714295" style="visibility: inherit;" fill="rgb(0, 0, 0)" stroke="rgb(204, 204, 204)" stroke-width="1px"></line><line x1="50" y1="0" x2="45" y2="0" style="visibility: inherit;" fill="rgb(0, 0, 0)" stroke="rgb(204, 204, 204)" stroke-width="1px"></line></g><g transform="translate(40, 0)"><text x="0" y="177" dx="0em" dy="0.3em" style="text-anchor: end; visibility: hidden; font-family: Roboto, sans-serif; font-size: 12px; font-weight: 200;" fill="rgb(33, 33, 33)" stroke="none" stroke-width="1px">0.7</text><text x="0" y="151.7142857142857" dx="0em" dy="0.3em" style="text-anchor: end; visibility: inherit; font-family: Roboto, sans-serif; font-size: 12px; font-weight: 200;" fill="rgb(33, 33, 33)" stroke="none" stroke-width="1px">0.75</text><text x="0" y="126.42857142857139" dx="0em" dy="0.3em" style="text-anchor: end; visibility: inherit; font-family: Roboto, sans-serif; font-size: 12px; font-weight: 200;" fill="rgb(33, 33, 33)" stroke="none" stroke-width="1px">0.8</text><text x="0" y="101.14285714285714" dx="0em" dy="0.3em" style="text-anchor: end; visibility: inherit; font-family: Roboto, sans-serif; font-size: 12px; font-weight: 200;" fill="rgb(33, 33, 33)" stroke="none" stroke-width="1px">0.85</text><text x="0" y="75.85714285714285" dx="0em" dy="0.3em" style="text-anchor: end; visibility: inherit; font-family: Roboto, sans-serif; font-size: 12px; font-weight: 200;" fill="rgb(33, 33, 33)" stroke="none" stroke-width="1px">0.9</text><text x="0" y="50.571428571428605" dx="0em" dy="0.3em" style="text-anchor: end; visibility: inherit; font-family: Roboto, sans-serif; font-size: 12px; font-weight: 200;" fill="rgb(33, 33, 33)" stroke="none" stroke-width="1px">0.95</text><text x="0" y="25.285714285714295" dx="0em" dy="0.3em" style="text-anchor: end; visibility: inherit; font-family: Roboto, sans-serif; font-size: 12px; font-weight: 200;" fill="rgb(33, 33, 33)" stroke="none" stroke-width="1px">1</text><text x="0" y="0" dx="0em" dy="0.3em" style="text-anchor: end; visibility: hidden; font-family: Roboto, sans-serif; font-size: 12px; font-weight: 200;" fill="rgb(33, 33, 33)" stroke="none" stroke-width="1px">1.05</text></g><line x1="50" y1="0" x2="50" y2="177" fill="rgb(0, 0, 0)" stroke="rgb(204, 204, 204)" stroke-width="1px"></line></g></g><g transform="translate(50, 0)" clip-path="url(#clip_0)"><clipPath id="clip_0"><rect width="280" height="177"></rect></clipPath><g><g><g><line x1="0" y1="0" x2="0" y2="177" fill="rgb(0, 0, 0)" stroke="rgb(66, 66, 66)" stroke-width="1px" opacity="0.25"></line><line x1="25.454545454545457" y1="0" x2="25.454545454545457" y2="177" fill="rgb(0, 0, 0)" stroke="rgb(66, 66, 66)" stroke-width="1px" opacity="0.25"></line><line x1="50.909090909090914" y1="0" x2="50.909090909090914" y2="177" fill="rgb(0, 0, 0)" stroke="rgb(66, 66, 66)" stroke-width="1px" opacity="0.25"></line><line x1="76.36363636363636" y1="0" x2="76.36363636363636" y2="177" fill="rgb(0, 0, 0)" stroke="rgb(66, 66, 66)" stroke-width="1px" opacity="0.25"></line><line x1="101.81818181818183" y1="0" x2="101.81818181818183" y2="177" fill="rgb(0, 0, 0)" stroke="rgb(66, 66, 66)" stroke-width="1px" opacity="0.25"></line><line x1="127.27272727272727" y1="0" x2="127.27272727272727" y2="177" fill="rgb(0, 0, 0)" stroke="rgb(66, 66, 66)" stroke-width="1px" opacity="0.25"></line><line x1="152.72727272727272" y1="0" x2="152.72727272727272" y2="177" fill="rgb(0, 0, 0)" stroke="rgb(66, 66, 66)" stroke-width="1px" opacity="0.25"></line><line x1="178.1818181818182" y1="0" x2="178.1818181818182" y2="177" fill="rgb(0, 0, 0)" stroke="rgb(66, 66, 66)" stroke-width="1px" opacity="0.25"></line><line x1="203.63636363636365" y1="0" x2="203.63636363636365" y2="177" fill="rgb(0, 0, 0)" stroke="rgb(66, 66, 66)" stroke-width="1px" opacity="0.25"></line><line x1="229.0909090909091" y1="0" x2="229.0909090909091" y2="177" fill="rgb(0, 0, 0)" stroke="rgb(66, 66, 66)" stroke-width="1px" opacity="0.25"></line><line x1="254.54545454545453" y1="0" x2="254.54545454545453" y2="177" fill="rgb(0, 0, 0)" stroke="rgb(66, 66, 66)" stroke-width="1px" opacity="0.25"></line><line x1="280" y1="0" x2="280" y2="177" fill="rgb(0, 0, 0)" stroke="rgb(66, 66, 66)" stroke-width="1px" opacity="0.25"></line></g><g><line x1="0" y1="177" x2="280" y2="177" fill="rgb(0, 0, 0)" stroke="rgb(66, 66, 66)" stroke-width="1px" opacity="0.25"></line><line x1="0" y1="151.7142857142857" x2="280" y2="151.7142857142857" fill="rgb(0, 0, 0)" stroke="rgb(66, 66, 66)" stroke-width="1px" opacity="0.25"></line><line x1="0" y1="126.42857142857139" x2="280" y2="126.42857142857139" fill="rgb(0, 0, 0)" stroke="rgb(66, 66, 66)" stroke-width="1px" opacity="0.25"></line><line x1="0" y1="101.14285714285714" x2="280" y2="101.14285714285714" fill="rgb(0, 0, 0)" stroke="rgb(66, 66, 66)" stroke-width="1px" opacity="0.25"></line><line x1="0" y1="75.85714285714285" x2="280" y2="75.85714285714285" fill="rgb(0, 0, 0)" stroke="rgb(66, 66, 66)" stroke-width="1px" opacity="0.25"></line><line x1="0" y1="50.571428571428605" x2="280" y2="50.571428571428605" fill="rgb(0, 0, 0)" stroke="rgb(66, 66, 66)" stroke-width="1px" opacity="0.25"></line><line x1="0" y1="25.285714285714295" x2="280" y2="25.285714285714295" fill="rgb(0, 0, 0)" stroke="rgb(66, 66, 66)" stroke-width="1px" opacity="0.25"></line><line x1="0" y1="0" x2="280" y2="0" fill="rgb(0, 0, 0)" stroke="rgb(66, 66, 66)" stroke-width="1px" opacity="0.25"></line></g></g></g><g><g><line x1="0" y1="530.9999999999999" x2="280" y2="530.9999999999999" fill="rgb(0, 0, 0)" stroke="rgb(153, 153, 153)" stroke-width="1.5px"></line></g></g><g><g><line x1="25.454545454545457" y1="0" x2="25.454545454545457" y2="177" fill="rgb(0, 0, 0)" stroke="rgb(153, 153, 153)" stroke-width="1.5px"></line></g></g><g><g><g><g><g><path stroke="rgb(255, 112, 67)" stroke-width="2px" d="M30.545454545454543,187.71316163880482L31.818181818181817,166.6694469707352L33.09090909090909,152.1135268489404L34.36363636363637,141.38007149488487L35.63636363636363,133.27901144437558L36.90909090909091,124.12292351447601L38.18181818181818,117.65092547439598L39.45454545454545,110.58297432635496L40.72727272727273,104.69815179378925L42,100.42886111121075L43.27272727272727,96.30777648852346L44.54545454545455,91.57737279902597L45.81818181818182,88.74572932161885L47.09090909090909,87.07575512401614L48.36363636363637,84.55675345973377L49.63636363636364,82.51362443808281L50.909090909090914,80.06355150247987L52.18181818181819,74.8936915326487L53.45454545454545,70.64753928643076L54.72727272727273,66.98206820796544L56,63.58511008841112L57.27272727272727,61.546982909403816L58.54545454545454,60.16442531764565L59.81818181818181,58.72270419434179L61.090909090909086,57.35196065129303L62.36363636363636,56.183499817974806L63.63636363636363,55.69536645814059L64.9090909090909,55.13631255460032L66.18181818181819,54.45487575050449L67.45454545454545,53.99276936244705L68.72727272727273,53.74212782578615L70,52.021368992451784L71.27272727272727,50.16379349599018L72.54545454545455,49.34203247729155L73.81818181818181,49.56763134349852L75.0909090909091,50.15546001431503L76.36363636363636,50.108920258898266L77.63636363636364,48.590465160107144L78.9090909090909,47.35999771961775L80.18181818181819,45.663522046294574L81.45454545454545,44.24638763470815L82.72727272727273,43.236409796350934L84,42.9231952505839L85.27272727272728,42.97481833989085L86.54545454545455,41.488650783028966L87.81818181818183,41.66161025328423L89.0909090909091,41.36613692669176L90.36363636363637,40.6831391273045L91.63636363636364,40.59273483179799L92.90909090909092,40.40541728969791L94.18181818181819,39.62761576895224L95.45454545454545,39.533561637971914L96.72727272727273,39.397274534771746L98,39.74137350883606L99.27272727272728,39.60181628190238L100.54545454545455,38.79943855290667L101.81818181818183,38.77049332158512L103.0909090909091,38.034470732788584L104.36363636363637,37.859031223438635L105.63636363636363,36.8221824784174L106.9090909090909,37.15826844090789L108.18181818181817,36.534811830863L109.45454545454545,36.53336464629961L110.72727272727272,36.665583357525506L112,36.85137937896496L113.27272727272727,36.829769969864635L114.54545454545455,36.41755531568085L115.81818181818181,36.27670337504258L117.09090909090908,35.92601816673175L118.36363636363636,35.3429802602816L119.63636363636363,35.15285470846735L120.9090909090909,35.03877937737882L122.18181818181817,35.44943781206136L123.45454545454545,35.26996163688719L124.72727272727272,35.42843791854238L126,35.97600509361109L127.27272727272727,35.931918617188714L128.54545454545456,35.71914731201939L129.8181818181818,34.97930593078637L131.0909090909091,34.748330691454335L132.36363636363637,34.42343818570739L133.63636363636365,34.015561035683305L134.9090909090909,33.957154164984715L136.1818181818182,33.86887764521363L137.45454545454547,33.52312751933125L138.72727272727275,33.31567744380178L140,33.430759215151944L141.27272727272725,33.60627307266595L142.54545454545453,33.924510976582106L143.8181818181818,33.90252412952403L145.0909090909091,33.543315409917454L146.36363636363635,33.6738067895252L147.63636363636363,33.43270723317822L148.9090909090909,33.2348151020181L150.1818181818182,33.27577701537783L151.45454545454544,33.16726714142975L152.72727272727272,33.42156765834069L154,33.41443871926333L155.27272727272728,33.330318788373006L156.54545454545453,33.22661443248686L157.8181818181818,33.05792702425133L159.0909090909091,33.196254338809666L160.36363636363637,32.77353692411712L161.63636363636363,32.75945829196944L162.9090909090909,32.51145929601299L164.18181818181816,32.44251452305106L165.45454545454547,32.56084485132975L166.72727272727272,33.03109205702064L168,32.701061782303746L169.27272727272725,32.077184438658044L170.54545454545456,32.0222524165823L171.8181818181818,31.8828284086329L173.0909090909091,31.905638798567228L174.36363636363635,32.31857404125149L175.63636363636365,32.03399915617443L176.9090909090909,31.889876452388222L178.1818181818182,32.25588423619214L179.45454545454544,32.235937089806676L180.72727272727275,32.170736404623355L182,32.07838359616147L183.27272727272728,31.91650711638044L184.54545454545453,31.84599139860373L185.81818181818184,32.123088409217544L187.0909090909091,32.635351169789395L188.36363636363637,32.72977923672476L189.63636363636363,32.99936566629373L190.9090909090909,32.76188057247958L192.1818181818182,32.80569687833878L193.45454545454547,32.485970050482635L194.72727272727272,32.054594194269285L196,32.354714881320746L197.27272727272728,32.00245126286402L198.54545454545456,32.08387730580975L199.8181818181818,32.212587556189185L201.0909090909091,32.476121068564595L202.36363636363637,32.181759769914194L203.63636363636365,32.4576243967996L204.9090909090909,32.46344598087503L206.1818181818182,32.86618794004393L207.45454545454547,32.46903229015375L208.72727272727275,32.47029071688745L210,32.68397536233547L211.27272727272725,32.38632697078871L212.54545454545453,32.28758050330453L213.8181818181818,31.42984666253484L215.0909090909091,31.420920161500625L216.36363636363635,31.655104020379717L217.63636363636363,31.556074576207543L218.9090909090909,31.762818896463976L220.1818181818182,31.860243261357727L221.45454545454544,31.70576829088619L222.72727272727272,32.145419339290896L224,32.089803527053874L225.27272727272728,32.34921825373151L226.54545454545453,32.05238568366241L227.8181818181818,31.954140766233017L229.0909090909091,31.921803985867214L230.36363636363637,31.689472328239965L231.63636363636363,32.295338953759014L232.9090909090909,32.39269694231069L234.18181818181816,32.29140248621772L235.45454545454547,31.75153423639442L236.72727272727272,31.32114849179653L238,31.249236464353768L239.27272727272725,31.339164212683805L240.54545454545456,31.41974308894185L241.8181818181818,31.867339423420432L243.0909090909091,31.630183420680027L244.36363636363635,31.700819408443525L245.63636363636365,31.71657877384161L246.9090909090909,31.805889017692408L248.1818181818182,31.939317731446753L249.45454545454544,31.912910164995445L250.72727272727275,31.923687852384752L252,31.850299840206333L253.27272727272728,31.619959670751577L254.54545454545453,31.401900944466675L255.81818181818184,31.776779512123337L257.0909090909091,31.629079871253683L258.3636363636364,31.14121107800824L259.6363636363636,31.034797164208705L260.9090909090909,31.02418121328091L262.1818181818182,31.603380070763777L263.45454545454544,31.63150500114179L264.72727272727275,31.75484475407254L266,31.48283199445922L267.2727272727273,31.85196036937887L268.54545454545456,31.594333760995006" style="fill: none;" fill="none"></path></g></g></g></g><g opacity="0.2"><g><g><g><path stroke="rgb(255, 112, 67)" stroke-width="2px" d="M30.545454545454543,187.71316163880482L31.818181818181817,154.04321816989352L33.09090909090909,138.1398435320173L34.36363636363637,128.7575279985155L35.63636363636363,122.70226744243075L36.90909090909091,111.45675771577018L38.18181818181818,108.39586472511292L39.45454545454545,100.27783370018005L40.72727272727273,96.01918162618364L42,94.08946200779506L43.27272727272727,90.1635274887085L44.54545454545455,84.50750991276333L45.81818181818182,84.50750991276333L47.09090909090909,84.57406548091343L48.36363636363637,80.78121195520674L49.63636363636364,79.45037187848773L50.909090909090914,76.38947888783046L52.18181818181819,67.14021420478821L53.45454545454545,64.27895777566093L54.72727272727273,61.48419662884304L56,58.48985920633589L57.27272727272727,58.48985920633589L58.54545454545454,58.09061622619629L59.81818181818181,56.560139587947305L61.090909090909086,55.29585507937842L62.36363636363636,54.4308135509491L63.63636363636363,54.963167667388916L64.9090909090909,54.29773255756923L66.18181818181819,53.432721172060305L67.45454545454545,53.29961003576007L68.72727272727273,53.366165603910176L70,49.44023108482363L71.27272727272727,47.37743047305518L72.54545454545455,48.109391008104616L73.81818181818181,49.90602963311332L75.0909090909091,51.037203005382L76.36363636363636,50.03911062649318L77.63636363636364,46.31278252601626L78.9090909090909,45.51429656573706L80.18181818181819,43.11880854197913L81.45454545454545,42.12068602016994L82.72727272727273,41.72144304003035L84,42.453373432159445L85.27272727272728,43.052252973829L86.54545454545455,39.259399448122316L87.81818181818183,41.92104945863997L89.0909090909091,40.92292693683081L90.36363636363637,39.6586424282619L91.63636363636364,40.45712838854109L92.90909090909092,40.12444097655162L94.18181818181819,38.46091348784312L95.45454545454545,39.39248044150218L96.72727272727273,39.19284387997219L98,40.257521969931474L99.27272727272728,39.39248044150218L100.54545454545455,37.59587195941382L101.81818181818183,38.72707547460284L103.0909090909091,36.93043684959414L104.36363636363637,37.59587195941382L105.63636363636363,35.26690936088564L106.9090909090909,37.662397384643576L108.18181818181817,35.59962691579547L109.45454545454545,36.531193869454526L110.72727272727272,36.86391142436438L112,37.1300734111241L113.27272727272727,36.797355856214274L114.54545454545455,35.79923333440509L115.81818181818181,36.06542546408519L117.09090909090908,35.399990354265505L118.36363636363636,34.46842340060645L119.63636363636363,34.86766638074603L120.9090909090909,34.86766638074603L122.18181818181817,36.06542546408519L123.45454545454545,35.00074737412589L124.72727272727272,35.666152341025224L126,36.797355856214274L127.27272727272727,35.86578890255522L128.54545454545456,35.399990354265505L129.8181818181818,33.86954385893687L131.0909090909091,34.40186783245634L132.36363636363637,33.93609942708697L133.63636363636365,33.40374531064715L134.9090909090909,33.86954385893687L136.1818181818182,33.73646286555701L137.45454545454547,33.00450233050757L138.72727272727275,33.00450233050757L140,33.603381872177145L141.27272727272725,33.86954385893687L142.54545454545453,34.40186783245634L143.8181818181818,33.86954385893687L145.0909090909091,33.00450233050757L146.36363636363635,33.86954385893687L147.63636363636363,33.07105789865767L148.9090909090909,32.937976905277814L150.1818181818182,33.3372198854174L151.45454545454544,33.00450233050757L152.72727272727272,33.80301843370711L154,33.40374531064715L155.27272727272728,33.204138892037534L156.54545454545453,33.07105789865767L157.8181818181818,32.80489591189795L159.0909090909091,33.40374531064715L160.36363636363637,32.13946080207827L161.63636363636363,32.73834034374784L162.9090909090909,32.13946080207827L164.18181818181816,32.33909736360823L165.45454545454547,32.73834034374784L166.72727272727272,33.73646286555701L168,32.206016370228376L169.27272727272725,31.14136842318945L170.54545454545456,31.93985438346865L171.8181818181818,31.6736923967089L173.0909090909091,31.93985438346865L174.36363636363635,32.937976905277814L175.63636363636365,31.607136828558797L176.9090909090909,31.6736923967089L178.1818181818182,32.80489591189795L179.45454545454544,32.206016370228376L180.72727272727275,32.07293537684851L182,31.93985438346865L183.27272727272728,31.6736923967089L184.54545454545453,31.74021782193866L185.81818181818184,32.538733925138224L187.0909090909091,33.40374531064715L188.36363636363637,32.87142133712771L189.63636363636363,33.40374531064715L190.9090909090909,32.40565293175834L192.1818181818182,32.87142133712771L193.45454545454547,32.006379808698405L194.72727272727272,31.407530409949178L196,32.80489591189795L197.27272727272728,31.474055835178934L198.54545454545456,32.206016370228376L199.8181818181818,32.40565293175834L201.0909090909091,32.87142133712771L202.36363636363637,31.74021782193866L203.63636363636365,32.87142133712771L204.9090909090909,32.472178356988096L206.1818181818182,33.47030087879728L207.45454545454547,31.87329881531852L208.72727272727275,32.472178356988096L210,33.00450233050757L211.27272727272725,31.93985438346865L212.54545454545453,32.13946080207827L213.8181818181818,30.14324590138029L215.0909090909091,31.407530409949178L216.36363636363635,32.006379808698405L217.63636363636363,31.407530409949178L218.9090909090909,32.07293537684851L220.1818181818182,32.006379808698405L221.45454545454544,31.474055835178934L222.72727272727272,32.80489591189795L224,32.006379808698405L225.27272727272728,32.73834034374784L226.54545454545453,31.607136828558797L227.8181818181818,31.806773390088786L229.0909090909091,31.87329881531852L230.36363636363637,31.34097484179907L231.63636363636363,33.204138892037534L232.9090909090909,32.538733925138224L234.18181818181816,32.13946080207827L235.45454545454547,30.941731861659463L236.72727272727272,30.67556987489974L238,31.14136842318945L239.27272727272725,31.474055835178934L240.54545454545456,31.54061140332904L241.8181818181818,32.538733925138224L243.0909090909091,31.274449416569315L244.36363636363635,31.806773390088786L245.63636363636365,31.74021782193866L246.9090909090909,31.93985438346865L248.1818181818182,32.13946080207827L249.45454545454544,31.87329881531852L250.72727272727275,31.93985438346865L252,31.74021782193866L253.27272727272728,31.274449416569315L254.54545454545453,31.074812855039347L255.81818181818184,32.33909736360823L257.0909090909091,31.407530409949178L258.3636363636364,30.409407888140013L259.6363636363636,30.87517629350936L260.9090909090909,31.008257286889222L262.1818181818182,32.472178356988096L263.45454545454544,31.6736923967089L264.72727272727275,31.93985438346865L266,31.074812855039347L267.2727272727273,32.40565293175834L268.54545454545456,31.20789384841921" style="fill: none;" fill="none"></path></g></g></g></g></g></g><g transform="translate(50, 177)" clip-path="url(#clip_1)"><clipPath id="clip_1"><rect width="280" height="23"></rect></clipPath><g><g><line x1="0" y1="0" x2="0" y2="5" style="visibility: inherit;" fill="rgb(0, 0, 0)" stroke="rgb(204, 204, 204)" stroke-width="1px"></line><line x1="25.454545454545457" y1="0" x2="25.454545454545457" y2="5" style="visibility: inherit;" fill="rgb(0, 0, 0)" stroke="rgb(204, 204, 204)" stroke-width="1px"></line><line x1="50.909090909090914" y1="0" x2="50.909090909090914" y2="5" style="visibility: inherit;" fill="rgb(0, 0, 0)" stroke="rgb(204, 204, 204)" stroke-width="1px"></line><line x1="76.36363636363636" y1="0" x2="76.36363636363636" y2="5" style="visibility: inherit;" fill="rgb(0, 0, 0)" stroke="rgb(204, 204, 204)" stroke-width="1px"></line><line x1="101.81818181818183" y1="0" x2="101.81818181818183" y2="5" style="visibility: inherit;" fill="rgb(0, 0, 0)" stroke="rgb(204, 204, 204)" stroke-width="1px"></line><line x1="127.27272727272727" y1="0" x2="127.27272727272727" y2="5" style="visibility: inherit;" fill="rgb(0, 0, 0)" stroke="rgb(204, 204, 204)" stroke-width="1px"></line><line x1="152.72727272727272" y1="0" x2="152.72727272727272" y2="5" style="visibility: inherit;" fill="rgb(0, 0, 0)" stroke="rgb(204, 204, 204)" stroke-width="1px"></line><line x1="178.1818181818182" y1="0" x2="178.1818181818182" y2="5" style="visibility: inherit;" fill="rgb(0, 0, 0)" stroke="rgb(204, 204, 204)" stroke-width="1px"></line><line x1="203.63636363636365" y1="0" x2="203.63636363636365" y2="5" style="visibility: inherit;" fill="rgb(0, 0, 0)" stroke="rgb(204, 204, 204)" stroke-width="1px"></line><line x1="229.0909090909091" y1="0" x2="229.0909090909091" y2="5" style="visibility: inherit;" fill="rgb(0, 0, 0)" stroke="rgb(204, 204, 204)" stroke-width="1px"></line><line x1="254.54545454545453" y1="0" x2="254.54545454545453" y2="5" style="visibility: inherit;" fill="rgb(0, 0, 0)" stroke="rgb(204, 204, 204)" stroke-width="1px"></line><line x1="280" y1="0" x2="280" y2="5" style="visibility: inherit;" fill="rgb(0, 0, 0)" stroke="rgb(204, 204, 204)" stroke-width="1px"></line></g><g transform="translate(0, 8)"><text x="0" y="0" dx="0em" dy="0.95em" style="text-anchor: middle; visibility: hidden; font-family: Roboto, sans-serif; font-size: 12px; font-weight: 200;" fill="rgb(33, 33, 33)" stroke="none" stroke-width="1px">-20</text><text x="25.454545454545457" y="0" dx="0em" dy="0.95em" style="text-anchor: middle; visibility: inherit; font-family: Roboto, sans-serif; font-size: 12px; font-weight: 200;" fill="rgb(33, 33, 33)" stroke="none" stroke-width="1px">0</text><text x="50.909090909090914" y="0" dx="0em" dy="0.95em" style="text-anchor: middle; visibility: inherit; font-family: Roboto, sans-serif; font-size: 12px; font-weight: 200;" fill="rgb(33, 33, 33)" stroke="none" stroke-width="1px">20</text><text x="76.36363636363636" y="0" dx="0em" dy="0.95em" style="text-anchor: middle; visibility: inherit; font-family: Roboto, sans-serif; font-size: 12px; font-weight: 200;" fill="rgb(33, 33, 33)" stroke="none" stroke-width="1px">40</text><text x="101.81818181818183" y="0" dx="0em" dy="0.95em" style="text-anchor: middle; visibility: inherit; font-family: Roboto, sans-serif; font-size: 12px; font-weight: 200;" fill="rgb(33, 33, 33)" stroke="none" stroke-width="1px">60</text><text x="127.27272727272727" y="0" dx="0em" dy="0.95em" style="text-anchor: middle; visibility: inherit; font-family: Roboto, sans-serif; font-size: 12px; font-weight: 200;" fill="rgb(33, 33, 33)" stroke="none" stroke-width="1px">80</text><text x="152.72727272727272" y="0" dx="0em" dy="0.95em" style="text-anchor: middle; visibility: inherit; font-family: Roboto, sans-serif; font-size: 12px; font-weight: 200;" fill="rgb(33, 33, 33)" stroke="none" stroke-width="1px">100</text><text x="178.1818181818182" y="0" dx="0em" dy="0.95em" style="text-anchor: middle; visibility: inherit; font-family: Roboto, sans-serif; font-size: 12px; font-weight: 200;" fill="rgb(33, 33, 33)" stroke="none" stroke-width="1px">120</text><text x="203.63636363636365" y="0" dx="0em" dy="0.95em" style="text-anchor: middle; visibility: inherit; font-family: Roboto, sans-serif; font-size: 12px; font-weight: 200;" fill="rgb(33, 33, 33)" stroke="none" stroke-width="1px">140</text><text x="229.0909090909091" y="0" dx="0em" dy="0.95em" style="text-anchor: middle; visibility: inherit; font-family: Roboto, sans-serif; font-size: 12px; font-weight: 200;" fill="rgb(33, 33, 33)" stroke="none" stroke-width="1px">160</text><text x="254.54545454545453" y="0" dx="0em" dy="0.95em" style="text-anchor: middle; visibility: inherit; font-family: Roboto, sans-serif; font-size: 12px; font-weight: 200;" fill="rgb(33, 33, 33)" stroke="none" stroke-width="1px">180</text><text x="280" y="0" dx="0em" dy="0.95em" style="text-anchor: middle; visibility: hidden; font-family: Roboto, sans-serif; font-size: 12px; font-weight: 200;" fill="rgb(33, 33, 33)" stroke="none" stroke-width="1px">200</text></g><line x1="0" y1="0" x2="280" y2="0" fill="rgb(0, 0, 0)" stroke="rgb(204, 204, 204)" stroke-width="1px"></line></g></g></g></g></svg>