<svg viewBox="0 0 330 200" xmlns="http://www.w3.org/2000/svg"><g><g><g><g><g><line x1="50" y1="177" x2="45" y2="177" style="visibility: inherit;" fill="rgb(0, 0, 0)" stroke="rgb(204, 204, 204)" stroke-width="1px"></line><line x1="50" y1="151.7142857142857" x2="45" y2="151.7142857142857" style="visibility: inherit;" fill="rgb(0, 0, 0)" stroke="rgb(204, 204, 204)" stroke-width="1px"></line><line x1="50" y1="126.42857142857139" x2="45" y2="126.42857142857139" style="visibility: inherit;" fill="rgb(0, 0, 0)" stroke="rgb(204, 204, 204)" stroke-width="1px"></line><line x1="50" y1="101.14285714285714" x2="45" y2="101.14285714285714" style="visibility: inherit;" fill="rgb(0, 0, 0)" stroke="rgb(204, 204, 204)" stroke-width="1px"></line><line x1="50" y1="75.85714285714285" x2="45" y2="75.85714285714285" style="visibility: inherit;" fill="rgb(0, 0, 0)" stroke="rgb(204, 204, 204)" stroke-width="1px"></line><line x1="50" y1="50.571428571428605" x2="45" y2="50.571428571428605" style="visibility: inherit;" fill="rgb(0, 0, 0)" stroke="rgb(204, 204, 204)" stroke-width="1px"></line><line x1="50" y1="25.285714285714295" x2="45" y2="25.285714285714295" style="visibility: inherit;" fill="rgb(0, 0, 0)" stroke="rgb(204, 204, 204)" stroke-width="1px"></line><line x1="50" y1="0" x2="45" y2="0" style="visibility: inherit;" fill="rgb(0, 0, 0)" stroke="rgb(204, 204, 204)" stroke-width="1px"></line></g><g transform="translate(40, 0)"><text x="0" y="177" dx="0em" dy="0.3em" style="text-anchor: end; visibility: hidden; font-family: Roboto, sans-serif; font-size: 12px; font-weight: 200;" fill="rgb(33, 33, 33)" stroke="none" stroke-width="1px">0.7</text><text x="0" y="151.7142857142857" dx="0em" dy="0.3em" style="text-anchor: end; visibility: inherit; font-family: Roboto, sans-serif; font-size: 12px; font-weight: 200;" fill="rgb(33, 33, 33)" stroke="none" stroke-width="1px">0.75</text><text x="0" y="126.42857142857139" dx="0em" dy="0.3em" style="text-anchor: end; visibility: inherit; font-family: Roboto, sans-serif; font-size: 12px; font-weight: 200;" fill="rgb(33, 33, 33)" stroke="none" stroke-width="1px">0.8</text><text x="0" y="101.14285714285714" dx="0em" dy="0.3em" style="text-anchor: end; visibility: inherit; font-family: Roboto, sans-serif; font-size: 12px; font-weight: 200;" fill="rgb(33, 33, 33)" stroke="none" stroke-width="1px">0.85</text><text x="0" y="75.85714285714285" dx="0em" dy="0.3em" style="text-anchor: end; visibility: inherit; font-family: Roboto, sans-serif; font-size: 12px; font-weight: 200;" fill="rgb(33, 33, 33)" stroke="none" stroke-width="1px">0.9</text><text x="0" y="50.571428571428605" dx="0em" dy="0.3em" style="text-anchor: end; visibility: inherit; font-family: Roboto, sans-serif; font-size: 12px; font-weight: 200;" fill="rgb(33, 33, 33)" stroke="none" stroke-width="1px">0.95</text><text x="0" y="25.285714285714295" dx="0em" dy="0.3em" style="text-anchor: end; visibility: inherit; font-family: Roboto, sans-serif; font-size: 12px; font-weight: 200;" fill="rgb(33, 33, 33)" stroke="none" stroke-width="1px">1</text><text x="0" y="0" dx="0em" dy="0.3em" style="text-anchor: end; visibility: hidden; font-family: Roboto, sans-serif; font-size: 12px; font-weight: 200;" fill="rgb(33, 33, 33)" stroke="none" stroke-width="1px">1.05</text></g><line x1="50" y1="0" x2="50" y2="177" fill="rgb(0, 0, 0)" stroke="rgb(204, 204, 204)" stroke-width="1px"></line></g></g><g transform="translate(50, 0)" clip-path="url(#clip_0)"><clipPath id="clip_0"><rect width="280" height="177"></rect></clipPath><g><g><g><line x1="0" y1="0" x2="0" y2="177" fill="rgb(0, 0, 0)" stroke="rgb(66, 66, 66)" stroke-width="1px" opacity="0.25"></line><line x1="25.454545454545457" y1="0" x2="25.454545454545457" y2="177" fill="rgb(0, 0, 0)" stroke="rgb(66, 66, 66)" stroke-width="1px" opacity="0.25"></line><line x1="50.909090909090914" y1="0" x2="50.909090909090914" y2="177" fill="rgb(0, 0, 0)" stroke="rgb(66, 66, 66)" stroke-width="1px" opacity="0.25"></line><line x1="76.36363636363636" y1="0" x2="76.36363636363636" y2="177" fill="rgb(0, 0, 0)" stroke="rgb(66, 66, 66)" stroke-width="1px" opacity="0.25"></line><line x1="101.81818181818183" y1="0" x2="101.81818181818183" y2="177" fill="rgb(0, 0, 0)" stroke="rgb(66, 66, 66)" stroke-width="1px" opacity="0.25"></line><line x1="127.27272727272727" y1="0" x2="127.27272727272727" y2="177" fill="rgb(0, 0, 0)" stroke="rgb(66, 66, 66)" stroke-width="1px" opacity="0.25"></line><line x1="152.72727272727272" y1="0" x2="152.72727272727272" y2="177" fill="rgb(0, 0, 0)" stroke="rgb(66, 66, 66)" stroke-width="1px" opacity="0.25"></line><line x1="178.1818181818182" y1="0" x2="178.1818181818182" y2="177" fill="rgb(0, 0, 0)" stroke="rgb(66, 66, 66)" stroke-width="1px" opacity="0.25"></line><line x1="203.63636363636365" y1="0" x2="203.63636363636365" y2="177" fill="rgb(0, 0, 0)" stroke="rgb(66, 66, 66)" stroke-width="1px" opacity="0.25"></line><line x1="229.0909090909091" y1="0" x2="229.0909090909091" y2="177" fill="rgb(0, 0, 0)" stroke="rgb(66, 66, 66)" stroke-width="1px" opacity="0.25"></line><line x1="254.54545454545453" y1="0" x2="254.54545454545453" y2="177" fill="rgb(0, 0, 0)" stroke="rgb(66, 66, 66)" stroke-width="1px" opacity="0.25"></line><line x1="280" y1="0" x2="280" y2="177" fill="rgb(0, 0, 0)" stroke="rgb(66, 66, 66)" stroke-width="1px" opacity="0.25"></line></g><g><line x1="0" y1="177" x2="280" y2="177" fill="rgb(0, 0, 0)" stroke="rgb(66, 66, 66)" stroke-width="1px" opacity="0.25"></line><line x1="0" y1="151.7142857142857" x2="280" y2="151.7142857142857" fill="rgb(0, 0, 0)" stroke="rgb(66, 66, 66)" stroke-width="1px" opacity="0.25"></line><line x1="0" y1="126.42857142857139" x2="280" y2="126.42857142857139" fill="rgb(0, 0, 0)" stroke="rgb(66, 66, 66)" stroke-width="1px" opacity="0.25"></line><line x1="0" y1="101.14285714285714" x2="280" y2="101.14285714285714" fill="rgb(0, 0, 0)" stroke="rgb(66, 66, 66)" stroke-width="1px" opacity="0.25"></line><line x1="0" y1="75.85714285714285" x2="280" y2="75.85714285714285" fill="rgb(0, 0, 0)" stroke="rgb(66, 66, 66)" stroke-width="1px" opacity="0.25"></line><line x1="0" y1="50.571428571428605" x2="280" y2="50.571428571428605" fill="rgb(0, 0, 0)" stroke="rgb(66, 66, 66)" stroke-width="1px" opacity="0.25"></line><line x1="0" y1="25.285714285714295" x2="280" y2="25.285714285714295" fill="rgb(0, 0, 0)" stroke="rgb(66, 66, 66)" stroke-width="1px" opacity="0.25"></line><line x1="0" y1="0" x2="280" y2="0" fill="rgb(0, 0, 0)" stroke="rgb(66, 66, 66)" stroke-width="1px" opacity="0.25"></line></g></g></g><g><g><line x1="0" y1="530.9999999999999" x2="280" y2="530.9999999999999" fill="rgb(0, 0, 0)" stroke="rgb(153, 153, 153)" stroke-width="1.5px"></line></g></g><g><g><line x1="25.454545454545457" y1="0" x2="25.454545454545457" y2="177" fill="rgb(0, 0, 0)" stroke="rgb(153, 153, 153)" stroke-width="1.5px"></line></g></g><g><g><g><g><g><path stroke="rgb(255, 112, 67)" stroke-width="2px" d="M30.545454545454543,187.28380588122775L31.818181818181817,166.3035985784871L33.09090909090909,151.77008764180775L34.36363636363637,141.07063579972558L35.63636363636363,132.99490774714275L36.90909090909091,123.84137735902137L38.18181818181818,117.37662813738598L39.45454545454545,110.33018522269818L40.72727272727273,104.45146909932208L42,100.20789230898384L43.27272727272727,96.09434306140224L44.54545454545455,91.37755399971032L45.81818181818182,88.5422529754512L47.09090909090909,86.88073007183542L48.36363636363637,84.36505789442147L49.63636363636364,82.32724221960974L50.909090909090914,79.8909443184397L52.18181818181819,74.74451733499222L53.45454545454545,70.50038957030826L54.72727272727273,66.83692890400091L56,63.454150782225405L57.27272727272727,61.417743127787595L58.54545454545454,60.041269229635205L59.81818181818181,58.59809808545479L61.090909090909086,57.22772642612682L62.36363636363636,56.066795378722965L63.63636363636363,55.58601331963065L64.9090909090909,55.03083967599593L66.18181818181819,54.348909647933404L67.45454545454545,53.890486191979136L68.72727272727273,53.64108984047964L70,51.927588989451856L71.27272727272727,50.07120930380028L72.54545454545455,49.245234389639215L73.81818181818181,49.476588193302604L75.0909090909091,50.059465980247275L76.36363636363636,50.02174760505711L77.63636363636364,48.50453412585582L78.9090909090909,47.26827667196926L80.18181818181819,45.57927489930458L81.45454545454545,44.15866709712612L82.72727272727273,43.15580484371311L84,42.84576244660896L85.27272727272728,42.901965516441415L86.54545454545455,41.41555577019444L87.81818181818183,41.58806849761505L89.0909090909091,41.29186895293241L90.36363636363637,40.6159470384443L91.63636363636364,40.52113122715034L92.90909090909092,40.33770176071147L94.18181818181819,39.561232340406654L95.45454545454545,39.463733346504526L96.72727272727273,39.3228834917456L98,39.675976439477836L99.27272727272728,39.53466569603617L100.54545454545455,38.730705341737185L101.81818181818183,38.69933956072037L103.0909090909091,37.96595202210722L104.36363636363637,37.7907431400352L105.63636363636363,36.7537795708497L106.9090909090909,37.09263007335527L108.18181818181817,36.470530758115714L109.45454545454545,36.47420235946277L110.72727272727272,36.60659862188056L112,36.790692598813685L113.27272727272727,36.766771846018244L114.54545454545455,36.35651022119304L115.81818181818181,36.21374346312533L117.09090909090908,35.8613426774541L118.36363636363636,35.28289406494233L119.63636363636363,35.095100088606124L120.9090909090909,34.98371381979579L122.18181818181817,35.39211534087128L123.45454545454545,35.2099105003646L124.72727272727272,35.3675212415814L126,35.920380647432125L127.27272727272727,35.871282692309734L128.54545454545456,35.65892873567308L129.8181818181818,34.918192332585996L131.0909090909091,34.690912146159775L132.36363636363637,34.36692244082874L133.63636363636365,33.96328852167409L134.9090909090909,33.90903119286025L136.1818181818182,33.821013822113535L137.45454545454547,33.478674621044355L138.72727272727275,33.268797891021734L140,33.385896134101216L141.27272727272725,33.55806226509473L142.54545454545453,33.87157867026636L143.8181818181818,33.85365562413944L145.0909090909091,33.49274957641851L146.36363636363635,33.62124592853801L147.63636363636363,33.37604357817557L148.9090909090909,33.180862295739615L150.1818181818182,33.22459614930742L151.45454545454544,33.11602526443973L152.72727272727272,33.373484324356866L154,33.365489419578374L155.27272727272728,33.287613980595765L156.54545454545453,33.18138659241977L157.8181818181818,33.01025696286329L159.0909090909091,33.147914717726536L160.36363636363637,32.727339629695095L161.63636363636363,32.7132924480572L162.9090909090909,32.464287463114474L164.18181818181816,32.39816333251347L165.45454545454547,32.509637513995195L166.72727272727272,32.98360819090098L168,32.65853691891334L169.27272727272725,32.03218513690448L170.54545454545456,31.97781817039518L171.8181818181818,31.840336799148723L173.0909090909091,31.864746829157898L174.36363636363635,32.27385516013429L175.63636363636365,31.990938879183435L176.9090909090909,31.841312524243786L178.1818181818182,32.2084551552323L179.45454545454544,32.18648811149348L180.72727272727275,32.123644409668614L182,32.03380299352281L183.27272727272728,31.871660945414416L184.54545454545453,31.79814039495949L185.81818181818184,32.07770274348906L187.0909090909091,32.588647443801115L188.36363636363637,32.687481314050245L189.63636363636363,32.953730870208545L190.9090909090909,32.71936794880885L192.1818181818182,32.76191063723139L193.45454545454547,32.44361404351526L194.72727272727272,32.016689363892546L196,32.31378977353486L197.27272727272728,31.96368079695171L198.54545454545456,32.04011784041904L199.8181818181818,32.170910758899666L201.0909090909091,32.43538038576413L202.36363636363637,32.14047149633794L203.63636363636365,32.41782820114755L204.9090909090909,32.4177447891447L206.1818181818182,32.82147724588848L207.45454545454547,32.423227891003236L208.72727272727275,32.420755516863366L210,32.637760036301216L211.27272727272725,32.340548194457945L212.54545454545453,32.24330554511453L213.8181818181818,31.38985000230938L215.0909090909091,31.381091103593356L216.36363636363635,31.61600249660687L217.63636363636363,31.51620385610093L218.9090909090909,31.72041282563653L220.1818181818182,31.818739470894588L221.45454545454544,31.662912893243224L222.72727272727272,32.09920891486178L224,32.044654664429565L225.27272727272728,32.305055986066236L226.54545454545453,32.01389144076082L227.8181818181818,31.916153617835256L229.0909090909091,31.879623770454373L230.36363636363637,31.64757353562729L231.63636363636363,32.247966260135414L232.9090909090909,32.345343572151805L234.18181818181816,32.240310930845105L235.45454545454547,31.70428863980591L236.72727272727272,31.278175788885815L238,31.208911897826653L239.27272727272725,31.29948806887178L240.54545454545456,31.37206420973134L241.8181818181818,31.824589037662157L243.0909090909091,31.58923264285137L244.36363636363635,31.660574623160223L245.63636363636365,31.67482843718263L246.9090909090909,31.765007753925108L248.1818181818182,31.890288807519507L249.45454545454544,31.865804944973117L250.72727272727275,31.874240275943823L252,31.808236525490635L253.27272727272728,31.575502555901917L254.54545454545453,31.359576471307097L255.81818181818184,31.735288508756504L257.0909090909091,31.585279629585173L258.3636363636364,31.097460096367712L259.6363636363636,30.995536890797986L260.9090909090909,30.986361419321142L262.1818181818182,31.562590385005088L263.45454545454544,31.591465385613777L264.72727272727275,31.7144594075855L266,31.442275380901236L267.2727272727273,31.809938535578087L268.54545454545456,31.552180339473452" style="fill: none;" fill="none"></path></g></g></g></g><g opacity="0.2"><g><g><g><path stroke="rgb(255, 112, 67)" stroke-width="2px" d="M30.545454545454543,187.28380588122775L31.818181818181817,153.71547419684273L33.09090909090909,137.81791714259555L34.36363636363637,128.48808043343678L35.63636363636363,122.45123720169067L36.90909090909091,111.17874956130981L38.18181818181818,108.13193331445966L39.45454545454545,100.05640380723136L40.72727272727273,95.78150469916207L42,93.90667533874512L43.27272727272727,89.9613287789481L44.54545454545455,84.32803896495274L45.81818181818182,84.29855918884277L47.09090909090909,84.3917008127485L48.36363636363637,80.59450670651027L49.63636363636364,79.27195593288967L50.909090909090914,76.2375284263066L52.18181818181819,67.0261835370745L53.45454545454545,64.13484447343009L54.72727272727273,61.342072759355815L56,58.380169119153706L57.27272727272727,58.363198654992246L58.54545454545454,57.97658555848258L59.81818181818181,56.43335846492224L61.090909090909086,55.172178677150185L62.36363636363636,54.325403758457746L63.63636363636363,54.86484146118164L64.9090909090909,54.19808006286621L66.18181818181819,53.32601523399353L67.45454545454545,53.202851261411396L68.72727272727273,53.26699539593288L70,49.357338053839555L71.27272727272727,47.28663999693736L72.54545454545455,48.006272077560446L73.81818181818181,49.82361888885498L75.0909090909091,50.93378264563426L76.36363636363636,49.965170042855405L77.63636363636364,46.22871392113822L78.9090909090909,45.41389049802508L80.18181818181819,43.045772245952065L81.45454545454545,42.02775539670672L82.72727272727273,41.65151146480017L84,42.380698851176675L85.27272727272728,42.98627012116569L86.54545454545455,39.185941151210244L87.81818181818183,41.84683758871898L89.0909090909091,40.847569635936196L90.36363636363637,39.602064166750246L91.63636363636364,40.37890751021251L92.90909090909092,40.06255756105696L94.18181818181819,38.39652820995878L95.45454545454545,39.31748485565188L96.72727272727273,39.11160870960781L98,40.20561586107527L99.27272727272728,39.32269958087378L100.54545454545455,37.524764810289675L101.81818181818183,38.65229088919505L103.0909090909091,36.86587071418764L104.36363636363637,37.52792981692725L105.63636363636363,35.198334217071555L106.9090909090909,37.600905827113564L108.18181818181817,35.53738178525653L109.45454545454545,36.479709761483335L110.72727272727272,36.80519301550731L112,37.06683356421336L113.27272727272727,36.730890716825236L114.54545454545455,35.74111778395518L115.81818181818181,35.999593326023664L117.09090909090908,35.332741498947165L118.36363636363636,34.415221146174844L119.63636363636363,34.81340912410193L120.9090909090909,34.81663441658022L122.18181818181817,36.0047176224845L123.45454545454545,34.93660323960441L124.72727272727272,35.60393735340666L126,36.74966975620817L127.27272727272727,35.79763575962614L128.54545454545456,35.34039780071806L129.8181818181818,33.80708772795543L131.0909090909091,34.34999186652049L132.36363636363637,33.880937882832136L133.63636363636365,33.35783764294218L134.9090909090909,33.82764519963946L136.1818181818182,33.68898776599341L137.45454545454547,32.96516581944059L138.72727272727275,32.953982795987834L140,33.56154349872046L141.27272727272725,33.81631146158492L142.54545454545453,34.34185327802386L143.8181818181818,33.8267710549491L145.0909090909091,32.95139050483706L146.36363636363635,33.81399045671736L147.63636363636363,33.00824005263194L148.9090909090909,32.88809037208559L150.1818181818182,33.29019692965918L151.45454545454544,32.953168937138166L152.72727272727272,33.759672914232546L154,33.353497062410646L155.27272727272728,33.17080082212176L156.54545454545453,33.02204551015582L157.8181818181818,32.75356251852855L159.0909090909091,33.354401350021384L160.36363636363637,32.09647699764799L161.63636363636363,32.692221675600344L162.9090909090909,32.09077998570036L164.18181818181816,32.29897713661196L165.45454545454547,32.67684878621783L166.72727272727272,33.6945642062596L168,32.17093001093184L169.27272727272725,31.092657463891175L170.54545454545456,31.896267720631204L171.8181818181818,31.634114742279074L173.0909090909091,31.90136187417167L174.36363636363635,32.887517656598796L175.63636363636365,31.566564457757142L176.9090909090909,31.61687299183439L178.1818181818182,32.75916910171511L179.45454545454544,32.15353754588538L180.72727272727275,32.02937885693144L182,31.899040869304116L183.27272727272728,31.62844787325179L184.54545454545453,31.687859569277098L185.81818181818184,32.49704626628333L187.0909090909091,33.35506449426924L188.36363636363637,32.83573211942401L189.63636363636363,33.35310520444598L190.9090909090909,32.36782356670927L192.1818181818182,32.82572466986522L193.45454545454547,31.96616915294104L194.72727272727272,31.376302344458455L196,32.75944038799833L197.27272727272728,31.438517332077048L198.54545454545456,32.154773405620034L199.8181818181818,32.367100136620664L201.0909090909091,32.83208482606071L202.36363636363637,31.69810816219877L203.63636363636365,32.83386325836184L204.9090909090909,32.41761967114042L206.1818181818182,33.42707593100413L207.45454545454547,31.82585385867529L208.72727272727275,32.4170469556536L210,32.96326681545805L211.27272727272725,31.894730431692953L212.54545454545453,32.097441571099424L213.8181818181818,30.109666688101644L215.0909090909091,31.367952755519326L216.36363636363635,31.968369586127157L217.63636363636363,31.36650589534216L218.9090909090909,32.02672627993994L220.1818181818182,31.96622943878176L221.45454545454544,31.42917302676611L222.72727272727272,32.75365294728961L224,31.962823288781312L225.27272727272728,32.69565796852114L226.54545454545453,31.577144622802756L227.8181818181818,31.76954688344684L229.0909090909091,31.82482899938312L230.36363636363637,31.299498183386678L231.63636363636363,33.14855534689769L232.9090909090909,32.49140954017641L234.18181818181816,32.08276196888517L235.45454545454547,30.90025520324709L236.72727272727272,30.639006512505677L238,31.105016061237894L239.27272727272725,31.435352325439474L240.54545454545456,31.48092842102053L241.8181818181818,32.50337627955847L243.0909090909091,31.236198050635213L244.36363636363635,31.767587593623574L245.63636363636365,31.696209158216227L246.9090909090909,31.900276729038797L248.1818181818182,32.078210387911135L249.45454545454544,31.829079151153586L250.72727272727275,31.886893272399924L252,31.709230899810812L253.27272727272728,31.22640160151892L254.54545454545453,31.035687344414857L255.81818181818184,32.298856564930524L257.0909090909091,31.360266310828084L258.3636363636364,30.365730796541502L259.6363636363636,30.84265208244326L260.9090909090909,30.972598212105897L262.1818181818182,32.42693383353099L263.45454545454544,31.634777886526937L264.72727272727275,31.89895044054305L266,31.033999340874818L267.2727272727273,32.361433267593405L268.54545454545456,31.165543045316447" style="fill: none;" fill="none"></path></g></g></g></g></g></g><g transform="translate(50, 177)" clip-path="url(#clip_1)"><clipPath id="clip_1"><rect width="280" height="23"></rect></clipPath><g><g><line x1="0" y1="0" x2="0" y2="5" style="visibility: inherit;" fill="rgb(0, 0, 0)" stroke="rgb(204, 204, 204)" stroke-width="1px"></line><line x1="25.454545454545457" y1="0" x2="25.454545454545457" y2="5" style="visibility: inherit;" fill="rgb(0, 0, 0)" stroke="rgb(204, 204, 204)" stroke-width="1px"></line><line x1="50.909090909090914" y1="0" x2="50.909090909090914" y2="5" style="visibility: inherit;" fill="rgb(0, 0, 0)" stroke="rgb(204, 204, 204)" stroke-width="1px"></line><line x1="76.36363636363636" y1="0" x2="76.36363636363636" y2="5" style="visibility: inherit;" fill="rgb(0, 0, 0)" stroke="rgb(204, 204, 204)" stroke-width="1px"></line><line x1="101.81818181818183" y1="0" x2="101.81818181818183" y2="5" style="visibility: inherit;" fill="rgb(0, 0, 0)" stroke="rgb(204, 204, 204)" stroke-width="1px"></line><line x1="127.27272727272727" y1="0" x2="127.27272727272727" y2="5" style="visibility: inherit;" fill="rgb(0, 0, 0)" stroke="rgb(204, 204, 204)" stroke-width="1px"></line><line x1="152.72727272727272" y1="0" x2="152.72727272727272" y2="5" style="visibility: inherit;" fill="rgb(0, 0, 0)" stroke="rgb(204, 204, 204)" stroke-width="1px"></line><line x1="178.1818181818182" y1="0" x2="178.1818181818182" y2="5" style="visibility: inherit;" fill="rgb(0, 0, 0)" stroke="rgb(204, 204, 204)" stroke-width="1px"></line><line x1="203.63636363636365" y1="0" x2="203.63636363636365" y2="5" style="visibility: inherit;" fill="rgb(0, 0, 0)" stroke="rgb(204, 204, 204)" stroke-width="1px"></line><line x1="229.0909090909091" y1="0" x2="229.0909090909091" y2="5" style="visibility: inherit;" fill="rgb(0, 0, 0)" stroke="rgb(204, 204, 204)" stroke-width="1px"></line><line x1="254.54545454545453" y1="0" x2="254.54545454545453" y2="5" style="visibility: inherit;" fill="rgb(0, 0, 0)" stroke="rgb(204, 204, 204)" stroke-width="1px"></line><line x1="280" y1="0" x2="280" y2="5" style="visibility: inherit;" fill="rgb(0, 0, 0)" stroke="rgb(204, 204, 204)" stroke-width="1px"></line></g><g transform="translate(0, 8)"><text x="0" y="0" dx="0em" dy="0.95em" style="text-anchor: middle; visibility: hidden; font-family: Roboto, sans-serif; font-size: 12px; font-weight: 200;" fill="rgb(33, 33, 33)" stroke="none" stroke-width="1px">-20</text><text x="25.454545454545457" y="0" dx="0em" dy="0.95em" style="text-anchor: middle; visibility: inherit; font-family: Roboto, sans-serif; font-size: 12px; font-weight: 200;" fill="rgb(33, 33, 33)" stroke="none" stroke-width="1px">0</text><text x="50.909090909090914" y="0" dx="0em" dy="0.95em" style="text-anchor: middle; visibility: inherit; font-family: Roboto, sans-serif; font-size: 12px; font-weight: 200;" fill="rgb(33, 33, 33)" stroke="none" stroke-width="1px">20</text><text x="76.36363636363636" y="0" dx="0em" dy="0.95em" style="text-anchor: middle; visibility: inherit; font-family: Roboto, sans-serif; font-size: 12px; font-weight: 200;" fill="rgb(33, 33, 33)" stroke="none" stroke-width="1px">40</text><text x="101.81818181818183" y="0" dx="0em" dy="0.95em" style="text-anchor: middle; visibility: inherit; font-family: Roboto, sans-serif; font-size: 12px; font-weight: 200;" fill="rgb(33, 33, 33)" stroke="none" stroke-width="1px">60</text><text x="127.27272727272727" y="0" dx="0em" dy="0.95em" style="text-anchor: middle; visibility: inherit; font-family: Roboto, sans-serif; font-size: 12px; font-weight: 200;" fill="rgb(33, 33, 33)" stroke="none" stroke-width="1px">80</text><text x="152.72727272727272" y="0" dx="0em" dy="0.95em" style="text-anchor: middle; visibility: inherit; font-family: Roboto, sans-serif; font-size: 12px; font-weight: 200;" fill="rgb(33, 33, 33)" stroke="none" stroke-width="1px">100</text><text x="178.1818181818182" y="0" dx="0em" dy="0.95em" style="text-anchor: middle; visibility: inherit; font-family: Roboto, sans-serif; font-size: 12px; font-weight: 200;" fill="rgb(33, 33, 33)" stroke="none" stroke-width="1px">120</text><text x="203.63636363636365" y="0" dx="0em" dy="0.95em" style="text-anchor: middle; visibility: inherit; font-family: Roboto, sans-serif; font-size: 12px; font-weight: 200;" fill="rgb(33, 33, 33)" stroke="none" stroke-width="1px">140</text><text x="229.0909090909091" y="0" dx="0em" dy="0.95em" style="text-anchor: middle; visibility: inherit; font-family: Roboto, sans-serif; font-size: 12px; font-weight: 200;" fill="rgb(33, 33, 33)" stroke="none" stroke-width="1px">160</text><text x="254.54545454545453" y="0" dx="0em" dy="0.95em" style="text-anchor: middle; visibility: inherit; font-family: Roboto, sans-serif; font-size: 12px; font-weight: 200;" fill="rgb(33, 33, 33)" stroke="none" stroke-width="1px">180</text><text x="280" y="0" dx="0em" dy="0.95em" style="text-anchor: middle; visibility: hidden; font-family: Roboto, sans-serif; font-size: 12px; font-weight: 200;" fill="rgb(33, 33, 33)" stroke="none" stroke-width="1px">200</text></g><line x1="0" y1="0" x2="280" y2="0" fill="rgb(0, 0, 0)" stroke="rgb(204, 204, 204)" stroke-width="1px"></line></g></g></g></g></svg>