<svg viewBox="0 0 330 200" xmlns="http://www.w3.org/2000/svg"><g><g><g><g><g><line x1="51.5625" y1="177" x2="46.5625" y2="177" style="visibility: inherit;" fill="rgb(0, 0, 0)" stroke="rgb(204, 204, 204)" stroke-width="1px"></line><line x1="51.5625" y1="151.7142857142857" x2="46.5625" y2="151.7142857142857" style="visibility: inherit;" fill="rgb(0, 0, 0)" stroke="rgb(204, 204, 204)" stroke-width="1px"></line><line x1="51.5625" y1="126.42857142857139" x2="46.5625" y2="126.42857142857139" style="visibility: inherit;" fill="rgb(0, 0, 0)" stroke="rgb(204, 204, 204)" stroke-width="1px"></line><line x1="51.5625" y1="101.1428571428571" x2="46.5625" y2="101.1428571428571" style="visibility: inherit;" fill="rgb(0, 0, 0)" stroke="rgb(204, 204, 204)" stroke-width="1px"></line><line x1="51.5625" y1="75.85714285714279" x2="46.5625" y2="75.85714285714279" style="visibility: inherit;" fill="rgb(0, 0, 0)" stroke="rgb(204, 204, 204)" stroke-width="1px"></line><line x1="51.5625" y1="50.571428571428605" x2="46.5625" y2="50.571428571428605" style="visibility: inherit;" fill="rgb(0, 0, 0)" stroke="rgb(204, 204, 204)" stroke-width="1px"></line><line x1="51.5625" y1="25.285714285714295" x2="46.5625" y2="25.285714285714295" style="visibility: inherit;" fill="rgb(0, 0, 0)" stroke="rgb(204, 204, 204)" stroke-width="1px"></line><line x1="51.5625" y1="0" x2="46.5625" y2="0" style="visibility: inherit;" fill="rgb(0, 0, 0)" stroke="rgb(204, 204, 204)" stroke-width="1px"></line></g><g transform="translate(41.5625, 0)"><text x="0" y="177" dx="0em" dy="0.3em" style="text-anchor: end; visibility: hidden; font-family: Roboto, sans-serif; font-size: 12px; font-weight: 200;" fill="rgb(33, 33, 33)" stroke="none" stroke-width="1px">1.15</text><text x="0" y="151.7142857142857" dx="0em" dy="0.3em" style="text-anchor: end; visibility: inherit; font-family: Roboto, sans-serif; font-size: 12px; font-weight: 200;" fill="rgb(33, 33, 33)" stroke="none" stroke-width="1px">1.2</text><text x="0" y="126.42857142857139" dx="0em" dy="0.3em" style="text-anchor: end; visibility: inherit; font-family: Roboto, sans-serif; font-size: 12px; font-weight: 200;" fill="rgb(33, 33, 33)" stroke="none" stroke-width="1px">1.25</text><text x="0" y="101.1428571428571" dx="0em" dy="0.3em" style="text-anchor: end; visibility: inherit; font-family: Roboto, sans-serif; font-size: 12px; font-weight: 200;" fill="rgb(33, 33, 33)" stroke="none" stroke-width="1px">1.3</text><text x="0" y="75.85714285714279" dx="0em" dy="0.3em" style="text-anchor: end; visibility: inherit; font-family: Roboto, sans-serif; font-size: 12px; font-weight: 200;" fill="rgb(33, 33, 33)" stroke="none" stroke-width="1px">1.35</text><text x="0" y="50.571428571428605" dx="0em" dy="0.3em" style="text-anchor: end; visibility: inherit; font-family: Roboto, sans-serif; font-size: 12px; font-weight: 200;" fill="rgb(33, 33, 33)" stroke="none" stroke-width="1px">1.4</text><text x="0" y="25.285714285714295" dx="0em" dy="0.3em" style="text-anchor: end; visibility: inherit; font-family: Roboto, sans-serif; font-size: 12px; font-weight: 200;" fill="rgb(33, 33, 33)" stroke="none" stroke-width="1px">1.45</text><text x="0" y="0" dx="0em" dy="0.3em" style="text-anchor: end; visibility: hidden; font-family: Roboto, sans-serif; font-size: 12px; font-weight: 200;" fill="rgb(33, 33, 33)" stroke="none" stroke-width="1px">1.5</text></g><line x1="51.5625" y1="0" x2="51.5625" y2="177" fill="rgb(0, 0, 0)" stroke="rgb(204, 204, 204)" stroke-width="1px"></line></g></g><g transform="translate(51, 0)" clip-path="url(#clip_0)"><clipPath id="clip_0"><rect width="278" height="177"></rect></clipPath><g><g><g><line x1="0" y1="0" x2="0" y2="177" fill="rgb(0, 0, 0)" stroke="rgb(66, 66, 66)" stroke-width="1px" opacity="0.25"></line><line x1="25.3125" y1="0" x2="25.3125" y2="177" fill="rgb(0, 0, 0)" stroke="rgb(66, 66, 66)" stroke-width="1px" opacity="0.25"></line><line x1="50.625" y1="0" x2="50.625" y2="177" fill="rgb(0, 0, 0)" stroke="rgb(66, 66, 66)" stroke-width="1px" opacity="0.25"></line><line x1="75.9375" y1="0" x2="75.9375" y2="177" fill="rgb(0, 0, 0)" stroke="rgb(66, 66, 66)" stroke-width="1px" opacity="0.25"></line><line x1="101.25" y1="0" x2="101.25" y2="177" fill="rgb(0, 0, 0)" stroke="rgb(66, 66, 66)" stroke-width="1px" opacity="0.25"></line><line x1="126.5625" y1="0" x2="126.5625" y2="177" fill="rgb(0, 0, 0)" stroke="rgb(66, 66, 66)" stroke-width="1px" opacity="0.25"></line><line x1="151.875" y1="0" x2="151.875" y2="177" fill="rgb(0, 0, 0)" stroke="rgb(66, 66, 66)" stroke-width="1px" opacity="0.25"></line><line x1="177.1875" y1="0" x2="177.1875" y2="177" fill="rgb(0, 0, 0)" stroke="rgb(66, 66, 66)" stroke-width="1px" opacity="0.25"></line><line x1="202.5" y1="0" x2="202.5" y2="177" fill="rgb(0, 0, 0)" stroke="rgb(66, 66, 66)" stroke-width="1px" opacity="0.25"></line><line x1="227.8125" y1="0" x2="227.8125" y2="177" fill="rgb(0, 0, 0)" stroke="rgb(66, 66, 66)" stroke-width="1px" opacity="0.25"></line><line x1="253.125" y1="0" x2="253.125" y2="177" fill="rgb(0, 0, 0)" stroke="rgb(66, 66, 66)" stroke-width="1px" opacity="0.25"></line><line x1="278.4375" y1="0" x2="278.4375" y2="177" fill="rgb(0, 0, 0)" stroke="rgb(66, 66, 66)" stroke-width="1px" opacity="0.25"></line></g><g><line x1="0" y1="177" x2="278.4375" y2="177" fill="rgb(0, 0, 0)" stroke="rgb(66, 66, 66)" stroke-width="1px" opacity="0.25"></line><line x1="0" y1="151.7142857142857" x2="278.4375" y2="151.7142857142857" fill="rgb(0, 0, 0)" stroke="rgb(66, 66, 66)" stroke-width="1px" opacity="0.25"></line><line x1="0" y1="126.42857142857139" x2="278.4375" y2="126.42857142857139" fill="rgb(0, 0, 0)" stroke="rgb(66, 66, 66)" stroke-width="1px" opacity="0.25"></line><line x1="0" y1="101.1428571428571" x2="278.4375" y2="101.1428571428571" fill="rgb(0, 0, 0)" stroke="rgb(66, 66, 66)" stroke-width="1px" opacity="0.25"></line><line x1="0" y1="75.85714285714279" x2="278.4375" y2="75.85714285714279" fill="rgb(0, 0, 0)" stroke="rgb(66, 66, 66)" stroke-width="1px" opacity="0.25"></line><line x1="0" y1="50.571428571428605" x2="278.4375" y2="50.571428571428605" fill="rgb(0, 0, 0)" stroke="rgb(66, 66, 66)" stroke-width="1px" opacity="0.25"></line><line x1="0" y1="25.285714285714295" x2="278.4375" y2="25.285714285714295" fill="rgb(0, 0, 0)" stroke="rgb(66, 66, 66)" stroke-width="1px" opacity="0.25"></line><line x1="0" y1="0" x2="278.4375" y2="0" fill="rgb(0, 0, 0)" stroke="rgb(66, 66, 66)" stroke-width="1px" opacity="0.25"></line></g></g></g><g><g><line x1="0" y1="758.5714285714284" x2="278.4375" y2="758.5714285714284" fill="rgb(0, 0, 0)" stroke="rgb(153, 153, 153)" stroke-width="1.5px"></line></g></g><g><g><line x1="25.3125" y1="0" x2="25.3125" y2="177" fill="rgb(0, 0, 0)" stroke="rgb(153, 153, 153)" stroke-width="1.5px"></line></g></g><g><g><g><g><g><path stroke="rgb(255, 112, 67)" stroke-width="2px" d="M40.5,-7.622118141548611L41.765625,1.0269396666108497L43.03125,8.790151300729015L44.296875,16.623094987556453L45.5625,23.107807946998943L46.828125,26.885214715847724L48.09375,30.71901824451179L49.359375,35.436170166276604L50.625,40.46094031645014L51.890625,49.67457421681403L53.15625,59.85226178814211L54.421875,66.44584595186312L55.6875,72.23855087573786L56.953125,76.75000979455719L58.21874999999999,79.3692631809019L59.484375,82.61921596138579L60.75,85.36627942608371L62.015625,87.20588420571954L63.28125,89.0875743499582L64.546875,90.19809149664032L65.8125,92.33298908347471L67.078125,93.36063008779189L68.34375,94.32368937470312L69.609375,97.44524994503368L70.87499999999999,99.30815456385984L72.140625,101.79274612676308L73.40625,101.21523847445347L74.671875,101.13760874178685L75.9375,101.87368580605002L77.203125,106.26157084658524L78.46875,109.19151105586941L79.734375,112.28444483585461L81,115.05452427656343L82.265625,117.03806427108998L83.53125,118.47654181667912L84.796875,118.09221784179809L86.0625,120.4421226975107L87.328125,120.02007536866323L88.59375,121.36275786119315L89.859375,122.82591707854769L91.125,123.91652516932353L92.39062500000001,124.2918630386088L93.65625,126.11080635968182L94.921875,125.83467245585783L96.1875,125.79597820844752L97.453125,126.41116459884499L98.71875,125.96890136005824L99.984375,127.47792450940355L101.25,127.92287514762393L102.515625,129.59298641604562L103.78125,131.0137021693645L105.046875,132.46168338461788L106.3125,132.09003065520386L107.578125,133.86573166630697L108.84375,134.06638805940682L110.109375,134.41434888680033L111.375,134.30896381009876L112.640625,134.79717940627233L113.90625,135.07853388255916L115.171875,135.4917453665925L116.43749999999999,135.92704064995695L117.703125,137.04782156557212L118.96875,137.49699136093056L120.234375,137.18352915842493L121.5,137.21686967270207L122.765625,138.28845195804035L124.03125,138.53800004706883L125.296875,138.3271713443337L126.5625,139.00915547536246L127.828125,139.29924524706178L129.09375,140.3445018514319L130.359375,140.9346403078544L131.625,140.80076978695524L132.890625,141.39222465467867L134.15625,141.7481344917731L135.421875,142.34582177107L136.6875,142.63606999527667L137.953125,142.86775573617962L139.21875,143.28958011668684L140.484375,143.04432787129906L141.74999999999997,142.4677484234805L143.015625,142.44174976863553L144.28125,142.99163176164163L145.546875,143.1023375262669L146.8125,143.62948949412748L148.078125,144.00932195095822L149.34375,143.86106189332708L150.609375,144.19280456959874L151.875,144.37863551907682L153.140625,144.7926725518112L154.40625,145.56326660939484L155.671875,144.97626358611157L156.9375,145.0832228493685L158.203125,144.97652422039812L159.46875,145.59151652416472L160.734375,145.70569571488775L162,145.75915588347883L163.26562499999997,145.91086320694976L164.53125,145.24023628943036L165.796875,145.2637193177344L167.0625,146.4661153982317L168.328125,147.58833331560788L169.59375,147.20895271545638L170.859375,147.67159723156004L172.125,147.24832487139795L173.390625,147.31459984118243L174.65625,147.30329065879874L175.921875,147.8861006715679L177.1875,147.71817245084458L178.453125,147.7714096699347L179.71875,147.65410837411312L180.984375,147.5411899074112L182.25,148.53856906115465L183.515625,148.5165346807549L184.78125000000003,148.39607759905L186.046875,147.66692882958895L187.3125,147.6088786493769L188.578125,147.47100798229846L189.84375,147.23600354840354L191.109375,147.29881525835816L192.375,147.85404416970692L193.640625,148.62227648612935L194.90625,148.1554891303774L196.171875,148.56677473825368L197.4375,148.52764653196937L198.703125,148.1312172831952L199.96875,147.7883659137403L201.234375,148.18843133391476L202.5,147.71434863123795L203.765625,147.88761322668145L205.03125,147.87092795950744L206.29687500000003,147.50735240057367L207.5625,148.29453374498806L208.828125,148.5736143749748L210.09375,148.74783888146337L211.35937499999997,148.4107677449459L212.625,149.49996834284678L213.890625,149.42832238078648L215.15625,149.02947954297377L216.421875,149.18321340741613L217.6875,149.20790947014376L218.953125,149.08375618776253L220.21875,149.51718448353154L221.484375,149.23298089101183L222.75,149.46859238723334L224.015625,148.97514938223017L225.28125,149.10021634813168L226.546875,149.55848155993402L227.8125,149.63722233265406L229.078125,150.02894009013545L230.34375,149.4780845250547L231.609375,149.29276360478588L232.87499999999997,149.38798977123503L234.140625,150.00906333949538L235.40625,149.90033709950492L236.671875,149.92184062313243L237.9375,150.13908762299874L239.203125,149.55871398955324L240.46875,149.38732023747326L241.734375,149.68456493955077L243,149.09723335503557L244.265625,148.8607520188545L245.53125,148.94696072407768L246.796875,148.86617766931855L248.0625,149.147905443231L249.328125,148.83390783742814L250.59375,149.52085968113815L251.859375,149.47565417102237L253.125,149.9300700462535L254.39062500000003,149.3401497624323L255.65625,149.25152763429745L256.921875,149.70130706933924L258.1875,150.0766267229442L259.453125,150.18375472464965L260.71875,149.65662742825208L261.984375,149.57462182743467L263.25,149.13708119539L264.515625,148.93867683634844L265.78125,148.76016826764155L267.046875,149.23875212613837" style="fill: none;" fill="none"></path></g></g></g></g><g opacity="0.2"><g><g><g><path stroke="rgb(255, 112, 67)" stroke-width="2px" d="M39.234375,-1.621930258614665L40.5,7.898530278887065L41.765625,13.86978251593453L43.03125,20.364556993756977L44.296875,28.329883984157004L45.5625,32.813703673226485L46.828125,32.5439245360238L48.09375,36.46521704537526L49.359375,42.50857114791868L50.625,47.9959692273821L51.890625,63.49268572671071L53.15625,75.11724267687113L54.421875,76.33561951773505L55.6875,80.92729057584489L56.953125,83.5170497213091L58.21874999999999,83.29809154782973L59.484375,87.49410663332255L60.75,89.48685509817939L62.015625,89.96528353009904L63.28125,91.9101047515869L64.546875,91.86386551175798L65.8125,95.53533349718363L67.078125,94.90209102630614L68.34375,95.76827798570902L69.609375,102.12759017944332L70.87499999999999,102.1025112697056L72.140625,105.51963329315181L73.40625,100.34897702080859L74.671875,101.02116414478846L75.9375,102.97780139105659L77.203125,112.8433983666556L78.46875,113.58642135347635L79.734375,116.92384549549647L81,119.20964343207218L82.265625,120.01337426049365L83.53125,120.63425813402445L84.796875,117.51573187964301L86.0625,123.96697998046871L87.328125,119.38700437545772L88.59375,123.3767815998622L89.859375,125.0206559044974L91.125,125.5524373054504L92.39062500000001,124.85486984252925L93.65625,128.83922134126934L94.921875,125.42047160012378L96.1875,125.73793683733255L97.453125,127.33394418443949L98.71875,125.305506501879L99.984375,129.74145923342022L101.25,128.59030110495428L102.515625,132.0981533186776L103.78125,133.14477579934254L105.046875,134.6336552074977L106.3125,131.5325515610831L107.578125,136.52928318296156L108.84375,134.36737264905653L110.109375,134.93629012789043L111.375,134.15088619504652L112.640625,135.52950280053273L113.90625,135.5005655969892L115.171875,136.11156259264263L116.43749999999999,136.57998357500347L117.703125,138.72899293899533L118.96875,138.17074605396812L120.234375,136.71333585466655L121.5,137.26688044411793L122.765625,139.89582538604733L124.03125,138.9123221806117L125.296875,138.01092829023085L126.5625,140.0321316719055L127.828125,139.73437990461073L129.09375,141.91238675798687L130.359375,141.8198479924883L131.625,140.5999640056065L132.890625,142.27940695626393L134.15625,142.2819992474147L135.421875,143.24235269001548L136.6875,143.07144233158652L137.953125,143.21528434753415L139.21875,143.92231668744765L140.484375,142.67644950321738L141.74999999999997,141.60287925175254L143.015625,142.4027517863682L144.28125,143.81645475115093L145.546875,143.26839617320465L146.8125,144.42021744591847L148.078125,144.57907063620428L149.34375,143.63867180688038L150.609375,144.69041858400615L151.875,144.65738194329396L153.140625,145.4137281009129L154.40625,146.71915769577024L155.671875,144.09575905118666L156.9375,145.24366174425396L158.203125,144.81647627694264L159.46875,146.51400497981476L160.734375,145.87696450097218L162,145.83934613636558L163.26562499999997,146.13842419215607L164.53125,144.2342959131513L165.796875,145.29894386019024L167.0625,148.26970951897755L168.328125,149.27166019167217L169.59375,146.6398818152291L170.859375,148.36556400571547L172.125,146.61341633115492L173.390625,147.41401229585918L174.65625,147.28632688522336L175.921875,148.76031569072174L177.1875,147.46628011975966L178.453125,147.85126549857L179.71875,147.47815643038066L180.984375,147.3718122073582L182.25,150.03463779176982L183.515625,148.48348311015533L184.78125000000003,148.21539197649273L186.046875,146.57320567539756L187.3125,147.5218033790588L188.578125,147.2642019816807L189.84375,146.88349689756117L191.109375,147.3930328232901L192.375,148.68688753673004L193.640625,149.77462496076308L194.90625,147.4553080967494L196.171875,149.18370315006797L197.4375,148.46895422254286L198.703125,147.53657341003415L199.96875,147.27408885955808L201.234375,148.7885294641767L202.5,147.0032245772225L203.765625,148.14751011984686L205.03125,147.8459000587463L206.29687500000003,146.961989062173L207.5625,149.47530576160972L208.828125,148.99223531995497L210.09375,149.0091756411961L211.35937499999997,147.90516104016982L212.625,151.1337692396981L213.890625,149.32085343769614L215.15625,148.43121528625485L216.421875,149.41381420407973L217.6875,149.24495356423512L218.953125,148.89752626419065L220.21875,150.16732692718503L221.484375,148.8066755022321L222.75,149.8220096315656L224.015625,148.2349848747253L225.28125,149.28781679698395L226.546875,150.24587937763755L227.8125,149.75533349173406L229.078125,150.61651672635756L230.34375,148.65180117743353L231.609375,149.01478222438263L232.87499999999997,149.53082902090887L234.140625,150.9406736918858L235.40625,149.73724773951935L236.671875,149.95409590857366L237.9375,150.46495812279835L239.203125,148.68815353938507L240.46875,149.13022960935317L241.734375,150.13043199266704L243,148.21623597826274L244.265625,148.50603001458302L245.53125,149.07627378191265L246.796875,148.74500308717998L248.0625,149.5704971040998L249.328125,148.36291142872398L250.59375,150.55128744670318L251.859375,149.4078459058489L253.125,150.6116938591003L254.39062500000003,148.4552693367004L255.65625,149.11859444209503L256.921875,150.375976221902L258.1875,150.63960620335166L259.453125,150.3444467272077L260.71875,148.86593648365562L261.984375,149.45161342620847L263.25,148.48077024732314L264.515625,148.64107029778614L265.78125,148.49240541458127L267.046875,149.95662791388372" style="fill: none;" fill="none"></path></g></g></g></g></g></g><g transform="translate(51, 177)" clip-path="url(#clip_1)"><clipPath id="clip_1"><rect width="278" height="23"></rect></clipPath><g><g><line x1="0" y1="0" x2="0" y2="5" style="visibility: inherit;" fill="rgb(0, 0, 0)" stroke="rgb(204, 204, 204)" stroke-width="1px"></line><line x1="25.3125" y1="0" x2="25.3125" y2="5" style="visibility: inherit;" fill="rgb(0, 0, 0)" stroke="rgb(204, 204, 204)" stroke-width="1px"></line><line x1="50.625" y1="0" x2="50.625" y2="5" style="visibility: inherit;" fill="rgb(0, 0, 0)" stroke="rgb(204, 204, 204)" stroke-width="1px"></line><line x1="75.9375" y1="0" x2="75.9375" y2="5" style="visibility: inherit;" fill="rgb(0, 0, 0)" stroke="rgb(204, 204, 204)" stroke-width="1px"></line><line x1="101.25" y1="0" x2="101.25" y2="5" style="visibility: inherit;" fill="rgb(0, 0, 0)" stroke="rgb(204, 204, 204)" stroke-width="1px"></line><line x1="126.5625" y1="0" x2="126.5625" y2="5" style="visibility: inherit;" fill="rgb(0, 0, 0)" stroke="rgb(204, 204, 204)" stroke-width="1px"></line><line x1="151.875" y1="0" x2="151.875" y2="5" style="visibility: inherit;" fill="rgb(0, 0, 0)" stroke="rgb(204, 204, 204)" stroke-width="1px"></line><line x1="177.1875" y1="0" x2="177.1875" y2="5" style="visibility: inherit;" fill="rgb(0, 0, 0)" stroke="rgb(204, 204, 204)" stroke-width="1px"></line><line x1="202.5" y1="0" x2="202.5" y2="5" style="visibility: inherit;" fill="rgb(0, 0, 0)" stroke="rgb(204, 204, 204)" stroke-width="1px"></line><line x1="227.8125" y1="0" x2="227.8125" y2="5" style="visibility: inherit;" fill="rgb(0, 0, 0)" stroke="rgb(204, 204, 204)" stroke-width="1px"></line><line x1="253.125" y1="0" x2="253.125" y2="5" style="visibility: inherit;" fill="rgb(0, 0, 0)" stroke="rgb(204, 204, 204)" stroke-width="1px"></line><line x1="278.4375" y1="0" x2="278.4375" y2="5" style="visibility: inherit;" fill="rgb(0, 0, 0)" stroke="rgb(204, 204, 204)" stroke-width="1px"></line></g><g transform="translate(0, 8)"><text x="0" y="0" dx="0em" dy="0.95em" style="text-anchor: middle; visibility: hidden; font-family: Roboto, sans-serif; font-size: 12px; font-weight: 200;" fill="rgb(33, 33, 33)" stroke="none" stroke-width="1px">-20</text><text x="25.3125" y="0" dx="0em" dy="0.95em" style="text-anchor: middle; visibility: inherit; font-family: Roboto, sans-serif; font-size: 12px; font-weight: 200;" fill="rgb(33, 33, 33)" stroke="none" stroke-width="1px">0</text><text x="50.625" y="0" dx="0em" dy="0.95em" style="text-anchor: middle; visibility: inherit; font-family: Roboto, sans-serif; font-size: 12px; font-weight: 200;" fill="rgb(33, 33, 33)" stroke="none" stroke-width="1px">20</text><text x="75.9375" y="0" dx="0em" dy="0.95em" style="text-anchor: middle; visibility: inherit; font-family: Roboto, sans-serif; font-size: 12px; font-weight: 200;" fill="rgb(33, 33, 33)" stroke="none" stroke-width="1px">40</text><text x="101.25" y="0" dx="0em" dy="0.95em" style="text-anchor: middle; visibility: inherit; font-family: Roboto, sans-serif; font-size: 12px; font-weight: 200;" fill="rgb(33, 33, 33)" stroke="none" stroke-width="1px">60</text><text x="126.5625" y="0" dx="0em" dy="0.95em" style="text-anchor: middle; visibility: inherit; font-family: Roboto, sans-serif; font-size: 12px; font-weight: 200;" fill="rgb(33, 33, 33)" stroke="none" stroke-width="1px">80</text><text x="151.875" y="0" dx="0em" dy="0.95em" style="text-anchor: middle; visibility: inherit; font-family: Roboto, sans-serif; font-size: 12px; font-weight: 200;" fill="rgb(33, 33, 33)" stroke="none" stroke-width="1px">100</text><text x="177.1875" y="0" dx="0em" dy="0.95em" style="text-anchor: middle; visibility: inherit; font-family: Roboto, sans-serif; font-size: 12px; font-weight: 200;" fill="rgb(33, 33, 33)" stroke="none" stroke-width="1px">120</text><text x="202.5" y="0" dx="0em" dy="0.95em" style="text-anchor: middle; visibility: inherit; font-family: Roboto, sans-serif; font-size: 12px; font-weight: 200;" fill="rgb(33, 33, 33)" stroke="none" stroke-width="1px">140</text><text x="227.8125" y="0" dx="0em" dy="0.95em" style="text-anchor: middle; visibility: inherit; font-family: Roboto, sans-serif; font-size: 12px; font-weight: 200;" fill="rgb(33, 33, 33)" stroke="none" stroke-width="1px">160</text><text x="253.125" y="0" dx="0em" dy="0.95em" style="text-anchor: middle; visibility: inherit; font-family: Roboto, sans-serif; font-size: 12px; font-weight: 200;" fill="rgb(33, 33, 33)" stroke="none" stroke-width="1px">180</text><text x="278.4375" y="0" dx="0em" dy="0.95em" style="text-anchor: middle; visibility: hidden; font-family: Roboto, sans-serif; font-size: 12px; font-weight: 200;" fill="rgb(33, 33, 33)" stroke="none" stroke-width="1px">200</text></g><line x1="0" y1="0" x2="278.4375" y2="0" fill="rgb(0, 0, 0)" stroke="rgb(204, 204, 204)" stroke-width="1px"></line></g></g></g></g></svg>